<svg width="150" height="150" viewBox="0 0 150 150" fill="none" xmlns="http://www.w3.org/2000/svg">
<g opacity="0.6">
<path d="M49.7918 23.9917C49.8683 24.1672 49.9802 24.325 50.1205 24.4553C50.2608 24.5857 50.4264 24.6856 50.6071 24.749C50.7878 24.8123 50.9796 24.8377 51.1706 24.8236C51.3615 24.8094 51.5475 24.756 51.7168 24.6667C52.6752 24.2333 52.8835 23.475 52.3418 22.2917L49.8418 16.8L51.2585 16.1583L53.7585 21.6417C54.6668 23.6333 54.0502 25.1667 52.3252 25.95C51.9815 26.1405 51.6024 26.2585 51.2114 26.2967C50.8203 26.335 50.4256 26.2927 50.0515 26.1724C49.6775 26.0521 49.332 25.8565 49.0365 25.5975C48.741 25.3385 48.5018 25.0217 48.3335 24.6667L49.7918 23.9917Z" fill="#424928"/>
<path d="M60.108 23.0667C57.708 23.75 55.4747 22.3 54.7163 19.6583C53.958 17.0167 55.0997 14.6083 57.4913 13.925C59.883 13.2417 62.133 14.675 62.8913 17.325C63.6497 19.975 62.4997 22.3833 60.108 23.0667ZM57.8747 15.2667C56.3163 15.7083 55.6997 17.35 56.208 19.225C56.7163 21.1 58.1413 22.1667 59.6997 21.725C61.258 21.2833 61.8913 19.6333 61.3663 17.7583C60.8413 15.8833 59.433 14.8167 57.8747 15.2667Z" fill="#424928"/>
<path d="M64.7417 17.95L64.1167 12.45L65.6667 12.275L66.275 17.6084C66.475 19.3667 67.3084 20.1084 68.6834 19.9417C70.0584 19.775 70.7084 18.8834 70.5084 17.125L69.9 11.7917L71.45 11.6167L72.075 17.1334C72.3584 19.6334 71.0334 21.0834 68.8417 21.3C66.65 21.5167 65 20.4667 64.7417 17.95Z" fill="#424928"/>
<path d="M75.7 17.0834L75.5583 20.8334L74 20.75L74.3583 11.5834L77.9083 11.7167C79.8167 11.7917 81.0083 12.8 80.9333 14.6C80.9411 14.9332 80.8822 15.2646 80.76 15.5747C80.6379 15.8848 80.455 16.1673 80.222 16.4056C79.9891 16.644 79.7109 16.8334 79.4037 16.9627C79.0965 17.0919 78.7666 17.1585 78.4333 17.1584L80.9333 21.0584L79.1667 20.9917L76.7417 17.1584L75.7 17.0834ZM75.75 15.775L77.7167 15.85C78.75 15.8917 79.3833 15.3584 79.3833 14.5084C79.3833 13.6584 78.85 13.075 77.8167 13.0334L75.8333 12.9584L75.75 15.775Z" fill="#424928"/>
<path d="M89.1666 22.5834L87.9916 22.35L84.6583 14.85L83.3583 21.425L81.8916 21.1334L83.6749 12.1L85.1166 12.3917L88.2333 19.5167L89.4749 13.25L90.9416 13.5417L89.1666 22.5834Z" fill="#424928"/>
<path d="M98.0917 15.9583L98.1417 25.8333L96.6667 25.2667V22.5417L93.3334 21.3L91.5917 23.3333L90.1167 22.775L96.6667 15.425L98.0917 15.9583ZM94.3167 20.2083L96.6667 21.1V17.5L94.3167 20.2083Z" fill="#424928"/>
<path d="M103.45 18.2833L104.808 19.0499L101 25.8333L104.866 27.9916L104.166 29.2416L98.9414 26.3249L103.45 18.2833Z" fill="#424928"/>
<path d="M115.142 34.7C115.002 34.831 114.891 34.9891 114.815 35.1647C114.739 35.3402 114.7 35.5295 114.7 35.7209C114.7 35.9122 114.739 36.1015 114.815 36.2771C114.891 36.4526 115.002 36.6108 115.142 36.7417C115.858 37.5 116.65 37.4667 117.592 36.5667L121.983 32.4L123.05 33.5334L118.667 37.7C117.075 39.2 115.425 39.1167 114.125 37.7C113.83 37.4361 113.592 37.114 113.428 36.7541C113.263 36.3941 113.174 36.0039 113.167 35.6081C113.16 35.2122 113.235 34.8191 113.387 34.4535C113.539 34.0879 113.764 33.7576 114.05 33.4834L115.142 34.7Z" fill="#424928"/>
<path d="M119.366 44.1667C117.941 42.1167 118.583 39.5333 120.841 37.9667C123.1 36.4 125.741 36.6833 127.166 38.7333C128.591 40.7833 128 43.3667 125.7 44.9417C123.4 46.5167 120.783 46.2167 119.366 44.1667ZM126.033 39.525C125.108 38.2 123.35 38.1417 121.75 39.2583C120.15 40.375 119.591 42.0417 120.516 43.3667C121.441 44.6917 123.208 44.7667 124.808 43.65C126.408 42.5333 126.95 40.8333 126.025 39.5333L126.033 39.525Z" fill="#424928"/>
<path d="M125.7 46.8834L130.7 44.5084L131.366 45.925L126.516 48.225C124.916 48.9834 124.491 50.0167 125.083 51.2584C125.675 52.5 126.75 52.8334 128.341 52.0917L133.191 49.7834L133.866 51.2L128.866 53.575C126.591 54.6584 124.783 53.8667 123.866 51.9084C122.95 49.95 123.408 47.975 125.7 46.8834Z" fill="#424928"/>
<path d="M130.067 56.9916L126.483 58.05L126.042 56.5583L134.875 53.9417L135.883 57.35C136.425 59.175 135.883 60.625 134.125 61.1417C133.815 61.2542 133.486 61.3045 133.157 61.2895C132.828 61.2745 132.505 61.1947 132.207 61.0545C131.909 60.9144 131.641 60.7166 131.42 60.4727C131.198 60.2288 131.027 59.9436 130.917 59.6333L128.033 63.275L127.533 61.6083L130.383 58.0916L130.067 56.9916ZM131.317 56.625L131.875 58.5083C131.913 58.7047 131.992 58.8908 132.106 59.0546C132.221 59.2185 132.369 59.3563 132.541 59.4592C132.712 59.5622 132.903 59.6278 133.102 59.652C133.3 59.6761 133.502 59.6582 133.693 59.5994C133.884 59.5405 134.061 59.4421 134.211 59.3106C134.362 59.179 134.483 59.0172 134.567 58.8357C134.651 58.6542 134.696 58.457 134.699 58.257C134.701 58.0571 134.662 57.8587 134.583 57.675L134.025 55.8333L131.317 56.625Z" fill="#424928"/>
<path d="M129.167 71.5417L129.008 70.3584L135.05 64.8084L128.383 65.6417L128.217 64.1667L137.383 62.9584L137.575 64.4167L131.817 69.6584L138.158 68.825L138.35 70.3084L129.167 71.5417Z" fill="#424928"/>
<path d="M138.333 77.8167L129 81.0583L129.05 79.4667L131.633 78.6333L131.742 75.1167L129.242 74.0917L129.292 72.5167L138.333 76.3167V77.8167ZM133.092 75.6167L133.008 78.1167L136.458 76.975L133.092 75.6167Z" fill="#424928"/>
<path d="M137.858 83.6334L137.575 85.1667L129.883 83.775L129.1 88.125L127.725 87.8834L128.792 81.9917L137.858 83.6334Z" fill="#424928"/>
<path d="M126.091 100C125.924 99.9083 125.739 99.8521 125.549 99.8349C125.358 99.8177 125.166 99.8399 124.985 99.9001C124.804 99.9603 124.637 100.057 124.494 100.185C124.352 100.312 124.237 100.468 124.158 100.642C123.666 101.567 123.958 102.308 125.108 102.908L130.433 105.733L129.708 107.117L124.375 104.283C122.441 103.258 122 101.667 122.883 100C123.038 99.6362 123.267 99.3083 123.555 99.0366C123.842 98.765 124.183 98.5554 124.555 98.4209C124.927 98.2865 125.322 98.23 125.717 98.2551C126.112 98.2802 126.498 98.3863 126.85 98.5667L126.091 100Z" fill="#424928"/>
<path d="M118.483 107.05C119.966 105.05 122.65 104.833 124.833 106.467C127.016 108.1 127.616 110.7 126.133 112.708C124.65 114.717 121.966 114.95 119.775 113.308C117.583 111.667 117 109.058 118.483 107.05ZM125.008 111.875C125.975 110.575 125.466 108.892 123.891 107.708C122.316 106.525 120.558 106.55 119.608 107.858C118.658 109.167 119.141 110.858 120.716 112.025C122.291 113.192 124.05 113.175 125 111.875H125.008Z" fill="#424928"/>
<path d="M117.942 113.925L121.8 117.892L120.683 118.975L116.942 115.125C115.708 113.858 114.592 113.792 113.608 114.75C112.625 115.708 112.65 116.825 113.883 118.083L117.625 121.942L116.508 123.025L112.642 119.042C110.883 117.242 111.05 115.275 112.642 113.742C114.233 112.208 116.175 112.108 117.942 113.925Z" fill="#424928"/>
<path d="M109.775 121.325L107.617 118.283L108.883 117.375L114.217 124.875L111.317 126.933C109.767 128.033 108.208 127.967 107.15 126.492C106.943 126.235 106.788 125.941 106.695 125.625C106.602 125.308 106.573 124.977 106.608 124.649C106.644 124.322 106.744 124.005 106.903 123.716C107.062 123.427 107.276 123.172 107.533 122.967L103.158 121.417L104.6 120.392L108.85 121.95L109.775 121.325ZM110.533 122.392L108.925 123.525C108.756 123.627 108.611 123.763 108.498 123.924C108.384 124.085 108.306 124.268 108.267 124.461C108.228 124.654 108.229 124.854 108.271 125.046C108.313 125.239 108.394 125.42 108.51 125.58C108.625 125.739 108.773 125.873 108.943 125.973C109.112 126.072 109.301 126.136 109.497 126.159C109.692 126.182 109.891 126.164 110.079 126.107C110.268 126.049 110.442 125.953 110.592 125.825L112.2 124.692L110.533 122.392Z" fill="#424928"/>
<path d="M95.7334 125.2L96.8084 124.667L104.017 128.575L101.025 122.567L102.375 121.9L106.475 130.15L105.158 130.808L98.3334 127.058L101.175 132.783L99.8334 133.45L95.7334 125.2Z" fill="#424928"/>
<path d="M92.7498 135.833L86.6665 128.075L88.1832 127.617L89.8498 129.775L93.2248 128.75L93.3832 126.042L94.8915 125.583L94.1665 135.425L92.7498 135.833ZM93.1415 130.167L90.7332 130.9L92.9248 133.792L93.1415 130.167Z" fill="#424928"/>
<path d="M87.0831 137.292L85.5414 137.517L84.3997 129.783L80.0164 130.433L79.8164 129.05L85.7331 128.175L87.0831 137.292Z" fill="#424928"/>
<path d="M67.7834 131.425C67.8216 131.234 67.8195 131.037 67.7774 130.847C67.7353 130.657 67.654 130.478 67.5387 130.321C67.4234 130.165 67.2767 130.033 67.1079 129.937C66.9391 129.84 66.752 129.779 66.5584 129.758C65.5168 129.6 64.8918 130.108 64.7168 131.425L63.7668 137.375L62.2251 137.133L63.1751 131.175C63.5168 129.017 64.8418 128.075 66.7501 128.375C67.1493 128.402 67.5384 128.512 67.8924 128.699C68.2464 128.886 68.5575 129.144 68.8055 129.458C69.0536 129.772 69.2331 130.134 69.3327 130.522C69.4322 130.91 69.4495 131.314 69.3834 131.708L67.7834 131.425Z" fill="#424928"/>
<path d="M58.6667 126.508C61.0417 127.258 62.1084 129.7 61.275 132.342C60.4417 134.983 58.1667 136.342 55.7917 135.592C53.4167 134.842 52.3334 132.4 53.1667 129.758C54 127.117 56.2917 125.758 58.6667 126.508ZM56.2167 134.242C57.7584 134.733 59.1917 133.708 59.775 131.85C60.3584 129.992 59.775 128.325 58.2417 127.833C56.7084 127.342 55.2584 128.367 54.6667 130.233C54.075 132.1 54.675 133.758 56.2167 134.242Z" fill="#424928"/>
<path d="M51.9915 128.208L49.4915 133.133L48.1081 132.425L50.5498 127.65C51.3831 126.075 51.0665 125 49.8331 124.367C48.5998 123.733 47.5665 124.133 46.7581 125.708L44.3165 130.483L42.9248 129.775L45.4248 124.833C46.5748 122.592 48.4831 122.125 50.4248 123.125C52.3665 124.125 53.1415 125.95 51.9915 128.208Z" fill="#424928"/>
<path d="M42.3663 122.867L44.558 119.842L45.8246 120.758L40.4246 128.258L37.5413 126.175C35.9996 125.058 35.5663 123.558 36.6163 122.1C36.792 121.82 37.0213 121.578 37.2911 121.388C37.5609 121.197 37.8657 121.062 38.1881 120.99C38.5104 120.918 38.8438 120.91 39.1691 120.968C39.4943 121.025 39.8049 121.147 40.083 121.325L40.1496 116.683L41.583 117.725L41.4663 122.258L42.3663 122.867ZM41.5996 123.925L39.9996 122.775C39.8526 122.636 39.6777 122.53 39.4864 122.463C39.2951 122.397 39.0919 122.372 38.8903 122.391C38.6888 122.409 38.4934 122.47 38.3173 122.57C38.1412 122.67 37.9884 122.806 37.8691 122.97C37.7497 123.133 37.6666 123.32 37.6252 123.518C37.5838 123.717 37.5851 123.921 37.629 124.119C37.6729 124.317 37.7584 124.503 37.8797 124.664C38.0011 124.826 38.1556 124.961 38.333 125.058L39.9246 126.208L41.5996 123.925Z" fill="#424928"/>
<path d="M34.1669 110.833L35.0003 111.667L33.6169 119.742L38.3753 115L39.4419 116.058L32.9419 122.6L31.9003 121.558L33.2586 113.892L28.7503 118.425L27.6836 117.367L34.1669 110.833Z" fill="#424928"/>
<path d="M23.1167 111.417L28.5167 103.158L29.45 104.45L27.9334 106.708L30 109.567L32.625 108.842L33.5417 110.117L24 112.617L23.1167 111.417ZM28.6084 109.95L27.1334 107.908L25.1084 110.925L28.6084 109.95Z" fill="#424928"/>
<path d="M19.9335 106.508L19.2168 105.117L26.1585 101.533L24.1668 97.6083L25.4001 96.9667L28.1501 102.283L19.9335 106.508Z" fill="#424928"/>
<path d="M19.2581 86.3667C19.4448 86.337 19.6235 86.2695 19.7832 86.1684C19.943 86.0674 20.0805 85.9348 20.1873 85.7789C20.2941 85.6229 20.3681 85.4468 20.4046 85.2613C20.4412 85.0758 20.4395 84.8849 20.3998 84.7C20.2248 83.6667 19.5665 83.2584 18.2581 83.4834L12.3165 84.4917L12.0498 82.9584L17.9998 81.9417C20.1581 81.575 21.4831 82.5667 21.7998 84.4417C21.899 84.8249 21.9179 85.2245 21.8555 85.6153C21.7931 86.0062 21.6507 86.38 21.4371 86.7132C21.2235 87.0465 20.9434 87.3321 20.6144 87.5521C20.2853 87.7721 19.9144 87.9217 19.5248 87.9917L19.2581 86.3667Z" fill="#424928"/>
<path d="M21 76.1417C21.05 78.6417 19.075 80.425 16.3333 80.4834C13.5917 80.5417 11.5417 78.8167 11.4917 76.3167C11.4417 73.8167 13.4 72.0167 16.1583 71.9667C18.9167 71.9167 20.9417 73.65 21 76.1417ZM12.8833 76.3084C12.8833 77.925 14.35 78.95 16.3 78.9084C18.25 78.8667 19.6333 77.7917 19.6333 76.1667C19.6333 74.5417 18.175 73.5167 16.225 73.5584C14.275 73.6 12.85 74.6917 12.8833 76.3084Z" fill="#424928"/>
<path d="M17.225 70.3667L11.7417 69.5334L11.9667 67.9917L17.2834 68.75C19.0334 69.0084 19.9584 68.3834 20.1584 67.0167C20.3584 65.65 19.6417 64.7917 17.8917 64.5167L12.575 63.7584L12.7917 62.2084L18.2917 63.0417C20.7917 63.4 21.85 65.0584 21.5334 67.2084C21.2167 69.3584 19.7334 70.725 17.225 70.3667Z" fill="#424928"/>
<path d="M19.1668 59.525L22.7418 60.625L22.2834 62.1167L13.4751 59.4167L14.5168 56.0167C15.0751 54.1917 16.3584 53.3 18.0751 53.825C18.3966 53.9012 18.6997 54.0404 18.9671 54.2345C19.2345 54.4286 19.4607 54.6738 19.6327 54.9558C19.8047 55.2379 19.9192 55.5513 19.9693 55.8778C20.0195 56.2044 20.0045 56.5376 19.9251 56.8583L24.3334 55.4167L23.8168 57.0833L19.4918 58.4417L19.1668 59.525ZM17.9168 59.1667L18.5001 57.2917C18.5847 57.1073 18.6289 56.907 18.6299 56.7042C18.6308 56.5014 18.5885 56.3007 18.5057 56.1156C18.4228 55.9304 18.3014 55.7651 18.1496 55.6306C17.9977 55.4962 17.8189 55.3957 17.6251 55.3359C17.4313 55.276 17.227 55.2583 17.0258 55.2838C16.8246 55.3093 16.6311 55.3774 16.4584 55.4837C16.2856 55.5899 16.1375 55.7318 16.024 55.8999C15.9105 56.068 15.8341 56.2584 15.8001 56.4583L15.2251 58.3333L17.9168 59.1667Z" fill="#424928"/>
<path d="M27.9503 47.8916L27.4253 48.9666L19.3253 50.25L25.3503 53.2L24.692 54.55L16.417 50.5L17.0587 49.1666L24.7587 47.9916L19.017 45.175L19.6753 43.8333L27.9503 47.8916Z" fill="#424928"/>
<path d="M23.8164 37.6167L33.3331 40.0834L32.4081 41.3834L29.7831 40.6667L27.7331 43.5417L29.2997 45.8334L28.3831 47.1084L22.9414 38.8834L23.8164 37.6167ZM26.9581 42.35L28.4247 40.3L24.9164 39.35L26.9581 42.35Z" fill="#424928"/>
<path d="M27.4331 33.0251L28.5081 31.9084L34.1664 37.3251L37.2081 34.1667L38.2164 35.1334L34.0498 39.4501L27.4331 33.0251Z" fill="#424928"/>
<path opacity="0.57" d="M21.6001 92.9834C22.6751 95.35 21.1084 99.4917 21.1084 99.4917C21.1084 99.4917 16.9417 97.9584 15.8834 95.5917C14.8251 93.225 15.6251 91.6334 17.2084 90.9084C18.7917 90.1834 20.5251 90.6167 21.6001 92.9834Z" fill="#8E9373"/>
<path d="M17.6333 89.8083C17.7608 91.611 18.2303 93.3729 19.0166 95" stroke="#424928" stroke-width="0.416667"/>
<path d="M21.5332 93.0167C21.9767 94.3376 22.0288 95.7585 21.6832 97.1083C21.5767 97.6715 21.4375 98.228 21.2665 98.775C21.1998 98.9917 21.1415 99.1583 21.1082 99.275V99.3833H20.9998C20.8832 99.3833 20.7165 99.2667 20.5165 99.175C19.9924 98.9432 19.4806 98.6845 18.9832 98.4C17.7358 97.7723 16.6967 96.7969 15.9915 95.5917C15.5117 94.7038 15.3923 93.6652 15.6582 92.6917C15.7969 92.3167 16.0124 91.9748 16.2908 91.6879C16.5691 91.4009 16.9043 91.1751 17.2748 91.025C17.6322 90.8432 18.0237 90.7381 18.4241 90.7166C18.8245 90.6951 19.225 90.7576 19.5998 90.9C20.4906 91.3332 21.1823 92.0904 21.5332 93.0167V93.0167Z" stroke="#424928" stroke-width="0.416667"/>
<path d="M20.0415 93.65C20.0415 93.65 18.8665 92.6416 18.1832 92.95C17.4999 93.2583 17.5999 94.5 17.5999 94.5" stroke="#424928" stroke-width="0.416667"/>
<path opacity="0.57" d="M43.7583 28.9584C41.925 30.8334 37.5 30.8334 37.5 30.8334C37.5 30.8334 37.5 26.4084 39.3083 24.5667C41.1167 22.725 42.925 22.9 44.1583 24.1584C45.3917 25.4167 45.6 27.1167 43.7583 28.9584Z" fill="#8E9373"/>
<path d="M45.3416 24.1667C43.7128 24.9216 42.2422 25.9793 41.0083 27.2834" stroke="#424928" stroke-width="0.416667"/>
<path d="M43.7084 28.9083C42.6289 29.7942 41.3137 30.3447 39.925 30.4917C39.3737 30.5897 38.8172 30.6565 38.2584 30.6917H37.7334H37.6167V30.575C37.6167 30.45 37.6167 30.275 37.6167 30.05C37.6418 29.4749 37.7003 28.9017 37.7917 28.3333C37.9424 26.9471 38.4892 25.6337 39.3667 24.55C40.0295 23.7875 40.9607 23.3099 41.9667 23.2167C42.3688 23.218 42.7662 23.3032 43.1335 23.4667C43.5009 23.6303 43.83 23.8687 44.1 24.1667C44.392 24.4404 44.6231 24.7726 44.7782 25.1416C44.9332 25.5106 45.0088 25.9082 45 26.3083C44.9176 27.3082 44.4554 28.2386 43.7084 28.9083V28.9083Z" stroke="#424928" stroke-width="0.416667"/>
<path d="M42.5915 27.7417C42.5915 27.7417 43.1248 26.2834 42.5915 25.75C42.0581 25.2167 40.9248 25.75 40.9248 25.75" stroke="#424928" stroke-width="0.416667"/>
<path opacity="0.57" d="M109.892 30.475C107.75 29 106.958 24.6417 106.958 24.6417C106.958 24.6417 111.308 23.8083 113.45 25.3C115.592 26.7917 115.708 28.5583 114.725 29.9917C113.742 31.425 112.033 31.95 109.892 30.475Z" fill="#8E9373"/>
<path d="M114.933 31.1583C113.898 29.6913 112.594 28.4331 111.092 27.45" stroke="#424928" stroke-width="0.416667"/>
<path d="M109.934 30.4084C108.87 29.505 108.091 28.3123 107.692 26.975C107.495 26.429 107.328 25.8726 107.192 25.3084C107.142 25.1 107.1 24.925 107.075 24.8V24.6834H107.192L107.709 24.6084C108.281 24.5406 108.857 24.5017 109.434 24.4917C110.82 24.375 112.209 24.6645 113.434 25.325C114.305 25.8375 114.944 26.6678 115.217 27.6417C115.333 28.4377 115.144 29.2483 114.689 29.9111C114.233 30.574 113.543 31.0403 112.759 31.2167C111.748 31.3214 110.736 31.0318 109.934 30.4084V30.4084Z" stroke="#424928" stroke-width="0.416667"/>
<path d="M110.883 29.1083C110.883 29.1083 112.417 29.3583 112.842 28.7417C113.267 28.125 112.542 27.075 112.542 27.075" stroke="#424928" stroke-width="0.416667"/>
<path opacity="0.57" d="M128.333 94.1667C128.817 91.6084 132.5 89.1667 132.5 89.1667C132.5 89.1667 135 92.8084 134.525 95.3667C134.05 97.925 132.45 98.75 130.75 98.425C129.05 98.1 127.883 96.7084 128.333 94.1667Z" fill="#8E9373"/>
<path d="M129.775 99.0416C130.7 97.5064 131.324 95.8098 131.617 94.0416" stroke="#424928" stroke-width="0.416667"/>
<path d="M128.442 94.1666C128.84 92.8311 129.616 91.639 130.675 90.7333C131.091 90.3358 131.528 89.9603 131.983 89.6083L132.408 89.2916L132.5 89.225L132.567 89.325L132.842 89.7666C133.146 90.2598 133.425 90.7688 133.675 91.2916C134.337 92.5212 134.626 93.9169 134.508 95.3083C134.388 96.3117 133.887 97.2305 133.108 97.875C132.425 98.3003 131.605 98.4509 130.815 98.2962C130.025 98.1416 129.323 97.6933 128.85 97.0416C128.35 96.1713 128.204 95.1419 128.442 94.1666V94.1666Z" stroke="#424928" stroke-width="0.416667"/>
<path d="M130 94.5084C130 94.5084 130.375 96.0167 131.117 96.175C131.858 96.3334 132.483 95.25 132.483 95.25" stroke="#424928" stroke-width="0.416667"/>
<path opacity="0.57" d="M74.2416 131.45C76.8333 131.233 80.2083 134.092 80.2083 134.092C80.2083 134.092 77.375 137.492 74.7833 137.717C72.1916 137.942 70.9666 136.667 70.8333 134.9C70.7 133.133 71.6666 131.667 74.2416 131.45Z" fill="#8E9373"/>
<path d="M69.9165 134.167C71.6485 134.645 73.4556 134.789 75.2415 134.592" stroke="#424928" stroke-width="0.416667"/>
<path d="M74.2502 131.525C75.6435 131.55 77.0002 131.975 78.1585 132.75C78.6561 133.043 79.1374 133.363 79.6002 133.708L80.0085 134.025L80.1002 134.1L80.0002 134.167L79.6502 134.55C79.2532 134.968 78.8331 135.363 78.3919 135.733C77.3887 136.704 76.1224 137.359 74.7502 137.617C73.7535 137.772 72.7353 137.536 71.9085 136.958C71.3086 136.42 70.936 135.673 70.8664 134.87C70.7967 134.067 71.0352 133.267 71.5335 132.633C72.2627 131.928 73.2358 131.531 74.2502 131.525Z" stroke="#424928" stroke-width="0.416667"/>
<path d="M74.3419 133.142C74.3419 133.142 73.0002 133.917 73.0669 134.658C73.1335 135.4 74.3335 135.725 74.3335 135.725" stroke="#424928" stroke-width="0.416667"/>
</g>
</svg>
